{
    "asset" : {
        "generator" : "Khronos glTF Blender I/O v1.3.48",
        "version" : "2.0"
    },
    "scene" : 0,
    "scenes" : [
        {
            "extras" : {},
            "name" : "Scene",
            "nodes" : [
                0,
                1,
                2,
                3
            ]
        }
    ],
    "nodes" : [
        {
            "mesh" : 0,
            "name" : "Locksmith_Bed_Bed_Mat_0.003"
        },
        {
            "mesh" : 1,
            "name" : "Locksmith_Bed_Bed_Mat_0.008"
        },
        {
            "mesh" : 2,
            "name" : "Locksmith_Bed_Bed_Mat_0.012"
        },
        {
            "mesh" : 3,
            "name" : "Virgen_del_Valle",
            "scale" : [
                0.9946755170822144,
                0.9946755170822144,
                0.9946755170822144
            ],
            "translation" : [
                0.7640380859375,
                34.03899002075195,
                0.2803683280944824
            ]
        }
    ],
    "materials" : [
        {
            "doubleSided" : true,
            "emissiveFactor" : [
                1,
                1,
                1
            ],
            "emissiveTexture" : {
                "index" : 0,
                "texCoord" : 0
            },
            "extras" : {},
            "name" : "Material.004",
            "pbrMetallicRoughness" : {
                "baseColorTexture" : {
                    "index" : 1,
                    "texCoord" : 0
                },
                "metallicFactor" : 0,
                "roughnessFactor" : 0.5
            }
        },
        {
            "doubleSided" : true,
            "emissiveFactor" : [
                0.5677618384361267,
                0.7342004776000977,
                0.4651670753955841
            ],
            "extras" : {},
            "name" : "Material.002",
            "pbrMetallicRoughness" : {
                "baseColorFactor" : [
                    1,
                    0.9944020509719849,
                    0.6857631802558899,
                    1
                ],
                "metallicFactor" : 0,
                "roughnessFactor" : 0.5
            }
        },
        {
            "doubleSided" : true,
            "emissiveFactor" : [
                0.2581353783607483,
                0.8134623169898987,
                0.3971349895000458
            ],
            "extras" : {},
            "name" : "Material.001",
            "pbrMetallicRoughness" : {
                "baseColorFactor" : [
                    0.6746262907981873,
                    1,
                    0.5513667464256287,
                    1
                ],
                "metallicFactor" : 0.6000000238418579,
                "roughnessFactor" : 0.4000000059604645
            }
        },
        {
            "alphaMode" : "BLEND",
            "doubleSided" : true,
            "emissiveFactor" : [
                1,
                1,
                1
            ],
            "emissiveTexture" : {
                "index" : 2,
                "texCoord" : 0
            },
            "extras" : {},
            "name" : "Virgen_del_Valle",
            "pbrMetallicRoughness" : {
                "baseColorTexture" : {
                    "index" : 3,
                    "texCoord" : 0
                },
                "metallicFactor" : 0,
                "roughnessFactor" : 0.5
            }
        }
    ],
    "meshes" : [
        {
            "name" : "Locksmith_Bed_Bed_Mat_0.003",
            "primitives" : [
                {
                    "attributes" : {
                        "POSITION" : 0,
                        "NORMAL" : 1,
                        "TEXCOORD_0" : 2
                    },
                    "indices" : 3,
                    "material" : 0
                }
            ]
        },
        {
            "name" : "Locksmith_Bed_Bed_Mat_0.008",
            "primitives" : [
                {
                    "attributes" : {
                        "POSITION" : 4,
                        "NORMAL" : 5,
                        "TEXCOORD_0" : 6
                    },
                    "indices" : 7,
                    "material" : 1
                }
            ]
        },
        {
            "name" : "Locksmith_Bed_Bed_Mat_0.012",
            "primitives" : [
                {
                    "attributes" : {
                        "POSITION" : 8,
                        "NORMAL" : 9,
                        "TEXCOORD_0" : 10
                    },
                    "indices" : 11,
                    "material" : 2
                }
            ]
        },
        {
            "name" : "Virgen_del_Valle",
            "primitives" : [
                {
                    "attributes" : {
                        "POSITION" : 12,
                        "NORMAL" : 13,
                        "TEXCOORD_0" : 14
                    },
                    "indices" : 15,
                    "material" : 3
                }
            ]
        }
    ],
    "textures" : [
        {
            "source" : 0
        },
        {
            "source" : 0
        },
        {
            "source" : 1
        },
        {
            "source" : 1
        }
    ],
    "images" : [
        {
            "bufferView" : 4,
            "mimeType" : "image/jpeg",
            "name" : "fundacobijaa"
        },
        {
            "bufferView" : 17,
            "mimeType" : "image/jpeg",
            "name" : "Virgen_del_Valle"
        }
    ],
    "accessors" : [
        {
            "bufferView" : 0,
            "componentType" : 5126,
            "count" : 758,
            "max" : [
                26.78159523010254,
                44.67056655883789,
                -128.7553253173828
            ],
            "min" : [
                -26.724422454833984,
                31.49899673461914,
                -151.58474731445312
            ],
            "type" : "VEC3"
        },
        {
            "bufferView" : 1,
            "componentType" : 5126,
            "count" : 758,
            "type" : "VEC3"
        },
        {
            "bufferView" : 2,
            "componentType" : 5126,
            "count" : 758,
            "type" : "VEC2"
        },
        {
            "bufferView" : 3,
            "componentType" : 5123,
            "count" : 3744,
            "type" : "SCALAR"
        },
        {
            "bufferView" : 5,
            "componentType" : 5126,
            "count" : 84,
            "max" : [
                40.76998519897461,
                32.8853874206543,
                -0.6071301698684692
            ],
            "min" : [
                -40.76998519897461,
                22.619922637939453,
                -156.94839477539062
            ],
            "type" : "VEC3"
        },
        {
            "bufferView" : 6,
            "componentType" : 5126,
            "count" : 84,
            "type" : "VEC3"
        },
        {
            "bufferView" : 7,
            "componentType" : 5126,
            "count" : 84,
            "type" : "VEC2"
        },
        {
            "bufferView" : 8,
            "componentType" : 5123,
            "count" : 324,
            "type" : "SCALAR"
        },
        {
            "bufferView" : 9,
            "componentType" : 5126,
            "count" : 884,
            "max" : [
                41,
                64.79684448242188,
                1
            ],
            "min" : [
                -41,
                0,
                -158.3760528564453
            ],
            "type" : "VEC3"
        },
        {
            "bufferView" : 10,
            "componentType" : 5126,
            "count" : 884,
            "type" : "VEC3"
        },
        {
            "bufferView" : 11,
            "componentType" : 5126,
            "count" : 884,
            "type" : "VEC2"
        },
        {
            "bufferView" : 12,
            "componentType" : 5123,
            "count" : 3456,
            "type" : "SCALAR"
        },
        {
            "bufferView" : 13,
            "componentType" : 5126,
            "count" : 8468,
            "max" : [
                41.0704231262207,
                -0.8184318542480469,
                -1.3337161540985107
            ],
            "min" : [
                -42.71123123168945,
                -14.14592170715332,
                -151.30703735351562
            ],
            "type" : "VEC3"
        },
        {
            "bufferView" : 14,
            "componentType" : 5126,
            "count" : 8468,
            "type" : "VEC3"
        },
        {
            "bufferView" : 15,
            "componentType" : 5126,
            "count" : 8468,
            "type" : "VEC2"
        },
        {
            "bufferView" : 16,
            "componentType" : 5123,
            "count" : 50688,
            "type" : "SCALAR"
        }
    ],
    "bufferViews" : [
        {
            "buffer" : 0,
            "byteLength" : 9096,
            "byteOffset" : 0
        },
        {
            "buffer" : 0,
            "byteLength" : 9096,
            "byteOffset" : 9096
        },
        {
            "buffer" : 0,
            "byteLength" : 6064,
            "byteOffset" : 18192
        },
        {
            "buffer" : 0,
            "byteLength" : 7488,
            "byteOffset" : 24256
        },
        {
            "buffer" : 0,
            "byteLength" : 17557,
            "byteOffset" : 31744
        },
        {
            "buffer" : 0,
            "byteLength" : 1008,
            "byteOffset" : 49304
        },
        {
            "buffer" : 0,
            "byteLength" : 1008,
            "byteOffset" : 50312
        },
        {
            "buffer" : 0,
            "byteLength" : 672,
            "byteOffset" : 51320
        },
        {
            "buffer" : 0,
            "byteLength" : 648,
            "byteOffset" : 51992
        },
        {
            "buffer" : 0,
            "byteLength" : 10608,
            "byteOffset" : 52640
        },
        {
            "buffer" : 0,
            "byteLength" : 10608,
            "byteOffset" : 63248
        },
        {
            "buffer" : 0,
            "byteLength" : 7072,
            "byteOffset" : 73856
        },
        {
            "buffer" : 0,
            "byteLength" : 6912,
            "byteOffset" : 80928
        },
        {
            "buffer" : 0,
            "byteLength" : 101616,
            "byteOffset" : 87840
        },
        {
            "buffer" : 0,
            "byteLength" : 101616,
            "byteOffset" : 189456
        },
        {
            "buffer" : 0,
            "byteLength" : 67744,
            "byteOffset" : 291072
        },
        {
            "buffer" : 0,
            "byteLength" : 101376,
            "byteOffset" : 358816
        },
        {
            "buffer" : 0,
            "byteLength" : 336660,
            "byteOffset" : 460192
        }
    ],
    "buffers" : [
        {
            "byteLength" : 796852,
            "uri" : "data:application/octet-stream;base64,"
        }
    ]
}
