{
    "asset" : {
        "generator" : "Khronos glTF Blender I/O v1.3.48",
        "version" : "2.0"
    },
    "scene" : 0,
    "scenes" : [
        {
            "name" : "Scene",
            "nodes" : [
                4
            ]
        }
    ],
    "nodes" : [
        {
            "mesh" : 0,
            "name" : "Mesh_0"
        },
        {
            "mesh" : 1,
            "name" : "Mesh_1"
        },
        {
            "children" : [
                0,
                1
            ],
            "name" : "a315bc43a52f4658b7b18815dc4bfba4.obj.cleaner.materialmerger.gle"
        },
        {
            "children" : [
                2
            ],
            "name" : "RootNode (model correction matrix)"
        },
        {
            "children" : [
                3
            ],
            "name" : "RootNode (gltf orientation matrix)",
            "rotation" : [
                -0.7071068286895752,
                0,
                0,
                0.7071068286895752
            ],
            "scale" : [
                20,
                20,
                20
            ]
        }
    ],
    "materials" : [
        {
            "doubleSided" : true,
            "emissiveFactor" : [
                1,
                1,
                1
            ],
            "name" : "Material.247",
            "pbrMetallicRoughness" : {
                "baseColorFactor" : [
                    1,
                    1,
                    1,
                    1
                ],
                "metallicFactor" : 0,
                "roughnessFactor" : 0.6000000238418579
            }
        },
        {
            "doubleSided" : true,
            "emissiveFactor" : [
                1,
                1,
                1
            ],
            "emissiveTexture" : {
                "index" : 0,
                "texCoord" : 0
            },
            "name" : "Material.248",
            "pbrMetallicRoughness" : {
                "baseColorTexture" : {
                    "index" : 1,
                    "texCoord" : 0
                },
                "metallicFactor" : 0,
                "roughnessFactor" : 0.6000000238418579
            }
        }
    ],
    "meshes" : [
        {
            "name" : "Mesh_0",
            "primitives" : [
                {
                    "attributes" : {
                        "POSITION" : 0,
                        "NORMAL" : 1,
                        "TEXCOORD_0" : 2
                    },
                    "indices" : 3,
                    "material" : 0
                }
            ]
        },
        {
            "name" : "Mesh_1",
            "primitives" : [
                {
                    "attributes" : {
                        "POSITION" : 4,
                        "NORMAL" : 5,
                        "TEXCOORD_0" : 6
                    },
                    "indices" : 7,
                    "material" : 1
                }
            ]
        }
    ],
    "textures" : [
        {
            "source" : 0
        },
        {
            "source" : 0
        }
    ],
    "images" : [
        {
            "bufferView" : 8,
            "mimeType" : "image/jpeg",
            "name" : "Material.248_baseColor"
        }
    ],
    "accessors" : [
        {
            "bufferView" : 0,
            "componentType" : 5126,
            "count" : 204,
            "max" : [
                0.4285750091075897,
                -0.6143659949302673,
                0.4559459984302521
            ],
            "min" : [
                -0.43680399656295776,
                -0.7996280193328857,
                0.22766900062561035
            ],
            "type" : "VEC3"
        },
        {
            "bufferView" : 1,
            "componentType" : 5126,
            "count" : 204,
            "type" : "VEC3"
        },
        {
            "bufferView" : 2,
            "componentType" : 5126,
            "count" : 204,
            "type" : "VEC2"
        },
        {
            "bufferView" : 3,
            "componentType" : 5123,
            "count" : 1104,
            "type" : "SCALAR"
        },
        {
            "bufferView" : 4,
            "componentType" : 5126,
            "count" : 1096,
            "max" : [
                1.320235013961792,
                1.3423579931259155,
                1.0877430438995361
            ],
            "min" : [
                -1.322432041168213,
                -1.7865689992904663,
                -0.4198409914970398
            ],
            "type" : "VEC3"
        },
        {
            "bufferView" : 5,
            "componentType" : 5126,
            "count" : 1096,
            "type" : "VEC3"
        },
        {
            "bufferView" : 6,
            "componentType" : 5126,
            "count" : 1096,
            "type" : "VEC2"
        },
        {
            "bufferView" : 7,
            "componentType" : 5123,
            "count" : 5472,
            "type" : "SCALAR"
        }
    ],
    "bufferViews" : [
        {
            "buffer" : 0,
            "byteLength" : 2448,
            "byteOffset" : 0
        },
        {
            "buffer" : 0,
            "byteLength" : 2448,
            "byteOffset" : 2448
        },
        {
            "buffer" : 0,
            "byteLength" : 1632,
            "byteOffset" : 4896
        },
        {
            "buffer" : 0,
            "byteLength" : 2208,
            "byteOffset" : 6528
        },
        {
            "buffer" : 0,
            "byteLength" : 13152,
            "byteOffset" : 8736
        },
        {
            "buffer" : 0,
            "byteLength" : 13152,
            "byteOffset" : 21888
        },
        {
            "buffer" : 0,
            "byteLength" : 8768,
            "byteOffset" : 35040
        },
        {
            "buffer" : 0,
            "byteLength" : 10944,
            "byteOffset" : 43808
        },
        {
            "buffer" : 0,
            "byteLength" : 244631,
            "byteOffset" : 54752
        }
    ],
    "buffers" : [
        {
            "byteLength" : 299384,
            "uri" : "data:application/octet-stream;base64,"
        }
    ]
}
