{
    "asset" : {
        "generator" : "Khronos glTF Blender I/O v1.3.48",
        "version" : "2.0"
    },
    "scene" : 0,
    "scenes" : [
        {
            "name" : "Scene",
            "nodes" : [
                17
            ]
        }
    ],
    "nodes" : [
        {
            "name" : "Node_10"
        },
        {
            "children" : [
                0
            ],
            "name" : "Camera",
            "rotation" : [
                -0.21255725622177124,
                0.9047970175743103,
                -0.08438937366008759,
                0.3592217266559601
            ],
            "scale" : [
                100,
                100.00000762939453,
                99.99999237060547
            ],
            "translation" : [
                735.88916015625,
                495.8309326171875,
                692.5791015625
            ]
        },
        {
            "name" : "Cube",
            "rotation" : [
                -0.7071068286895752,
                0,
                0,
                0.7071067094802856
            ],
            "scale" : [
                100,
                100,
                100
            ],
            "translation" : [
                0,
                37.01373291015625,
                4.973122031515231e-06
            ]
        },
        {
            "mesh" : 0,
            "name" : "Cube.003_Mustang_0"
        },
        {
            "children" : [
                3
            ],
            "name" : "Cube.003",
            "rotation" : [
                -0.7071068286895752,
                0,
                0,
                0.7071067094802856
            ],
            "scale" : [
                100,
                100,
                100
            ],
            "translation" : [
                0,
                37.01373291015625,
                4.973122031515231e-06
            ]
        },
        {
            "mesh" : 1,
            "name" : "Cube.004_Mustang_0"
        },
        {
            "children" : [
                5
            ],
            "name" : "Cube.004",
            "rotation" : [
                -0.7071068286895752,
                0,
                0,
                0.7071067094802856
            ],
            "scale" : [
                100,
                100,
                100
            ],
            "translation" : [
                0,
                37.01373291015625,
                4.973122031515231e-06
            ]
        },
        {
            "mesh" : 2,
            "name" : "Cube.005_Mustang_0"
        },
        {
            "children" : [
                7
            ],
            "name" : "Cube.005",
            "rotation" : [
                -0.7071068286895752,
                0,
                0,
                0.7071067094802856
            ],
            "scale" : [
                100,
                100,
                100
            ],
            "translation" : [
                0,
                85.83484649658203,
                -21.193683624267578
            ]
        },
        {
            "name" : "Node_8"
        },
        {
            "children" : [
                9
            ],
            "name" : "Node_7",
            "rotation" : [
                0.7071068286895752,
                0,
                0,
                0.7071068286895752
            ]
        },
        {
            "children" : [
                10
            ],
            "name" : "Light",
            "rotation" : [
                0.16907569766044617,
                0.7558803558349609,
                -0.27217134833335876,
                0.570947527885437
            ],
            "scale" : [
                100.00000762939453,
                100,
                100
            ],
            "translation" : [
                407.6245422363281,
                590.38623046875,
                -100.54539489746094
            ]
        },
        {
            "mesh" : 3,
            "name" : "Plane_Mustang_0"
        },
        {
            "children" : [
                12
            ],
            "name" : "Plane",
            "scale" : [
                100,
                100,
                100
            ],
            "translation" : [
                0,
                0,
                17.68038558959961
            ]
        },
        {
            "children" : [
                1,
                2,
                4,
                6,
                8,
                11,
                13
            ],
            "name" : "RootNode"
        },
        {
            "children" : [
                14
            ],
            "name" : "Mustang.fbx",
            "rotation" : [
                0.7071068286895752,
                0,
                0,
                0.7071068286895752
            ]
        },
        {
            "children" : [
                15
            ],
            "name" : "RootNode (model correction matrix)"
        },
        {
            "children" : [
                16
            ],
            "name" : "RootNode (gltf orientation matrix)",
            "rotation" : [
                -0.7071068286895752,
                0,
                0,
                0.7071068286895752
            ],
            "scale" : [
                0.15002107620239258,
                0.15002107620239258,
                0.15002107620239258
            ],
            "translation" : [
                0,
                8.314932823181152,
                0
            ]
        }
    ],
    "materials" : [
        {
            "alphaMode" : "BLEND",
            "doubleSided" : true,
            "emissiveFactor" : [
                0,
                0,
                0
            ],
            "name" : "Mustang",
            "normalTexture" : {
                "index" : 0,
                "texCoord" : 0
            },
            "occlusionTexture" : {
                "index" : 1,
                "texCoord" : 0
            },
            "pbrMetallicRoughness" : {
                "baseColorTexture" : {
                    "index" : 2,
                    "texCoord" : 0
                },
                "metallicRoughnessTexture" : {
                    "index" : 1,
                    "texCoord" : 0
                }
            }
        },
        {
            "doubleSided" : true,
            "emissiveFactor" : [
                0.9401509165763855,
                1,
                0
            ],
            "name" : "Material.004",
            "pbrMetallicRoughness" : {
                "baseColorFactor" : [
                    0.8000000715255737,
                    0.6777473092079163,
                    0,
                    1
                ],
                "metallicFactor" : 0,
                "roughnessFactor" : 0.5
            }
        }
    ],
    "meshes" : [
        {
            "name" : "Cube.003_Mustang_0",
            "primitives" : [
                {
                    "attributes" : {
                        "POSITION" : 0,
                        "NORMAL" : 1,
                        "TEXCOORD_0" : 2
                    },
                    "indices" : 3,
                    "material" : 0
                }
            ]
        },
        {
            "name" : "Cube.004_Mustang_0",
            "primitives" : [
                {
                    "attributes" : {
                        "POSITION" : 4,
                        "NORMAL" : 5,
                        "TEXCOORD_0" : 6
                    },
                    "indices" : 7,
                    "material" : 1
                }
            ]
        },
        {
            "name" : "Cube.005_Mustang_0",
            "primitives" : [
                {
                    "attributes" : {
                        "POSITION" : 8,
                        "NORMAL" : 9,
                        "TEXCOORD_0" : 10
                    },
                    "indices" : 11,
                    "material" : 0
                }
            ]
        },
        {
            "name" : "Plane_Mustang_0",
            "primitives" : [
                {
                    "attributes" : {
                        "POSITION" : 12,
                        "NORMAL" : 13,
                        "TEXCOORD_0" : 14
                    },
                    "indices" : 15,
                    "material" : 0
                }
            ]
        }
    ],
    "textures" : [
        {
            "source" : 0
        },
        {
            "source" : 1
        },
        {
            "source" : 2
        }
    ],
    "images" : [
        {
            "bufferView" : 4,
            "mimeType" : "image/png",
            "name" : "Mustang_normal"
        },
        {
            "bufferView" : 5,
            "mimeType" : "image/png",
            "name" : "Mustang_metallicRoughness"
        },
        {
            "bufferView" : 6,
            "mimeType" : "image/png",
            "name" : "Mustang_baseColor"
        }
    ],
    "accessors" : [
        {
            "bufferView" : 0,
            "componentType" : 5126,
            "count" : 2059,
            "max" : [
                1.5327898263931274,
                0.3247475326061249,
                0.09104930609464645
            ],
            "min" : [
                -1.5327898263931274,
                0.1306309700012207,
                -0.029011592268943787
            ],
            "type" : "VEC3"
        },
        {
            "bufferView" : 1,
            "componentType" : 5126,
            "count" : 2059,
            "type" : "VEC3"
        },
        {
            "bufferView" : 2,
            "componentType" : 5126,
            "count" : 2059,
            "type" : "VEC2"
        },
        {
            "bufferView" : 3,
            "componentType" : 5123,
            "count" : 6960,
            "type" : "SCALAR"
        },
        {
            "bufferView" : 7,
            "componentType" : 5126,
            "count" : 2045,
            "max" : [
                1.5313949584960938,
                3.261645793914795,
                0.09072133898735046
            ],
            "min" : [
                -1.5313948392868042,
                0.2806023061275482,
                -0.47968488931655884
            ],
            "type" : "VEC3"
        },
        {
            "bufferView" : 8,
            "componentType" : 5126,
            "count" : 2045,
            "type" : "VEC3"
        },
        {
            "bufferView" : 9,
            "componentType" : 5126,
            "count" : 2045,
            "type" : "VEC2"
        },
        {
            "bufferView" : 10,
            "componentType" : 5123,
            "count" : 9120,
            "type" : "SCALAR"
        },
        {
            "bufferView" : 11,
            "componentType" : 5126,
            "count" : 272,
            "max" : [
                1.5022042989730835,
                0.030484076589345932,
                -0.39638909697532654
            ],
            "min" : [
                -1.5022042989730835,
                -0.005383459851145744,
                -0.4075196385383606
            ],
            "type" : "VEC3"
        },
        {
            "bufferView" : 12,
            "componentType" : 5126,
            "count" : 272,
            "type" : "VEC3"
        },
        {
            "bufferView" : 13,
            "componentType" : 5126,
            "count" : 272,
            "type" : "VEC2"
        },
        {
            "bufferView" : 14,
            "componentType" : 5123,
            "count" : 744,
            "type" : "SCALAR"
        },
        {
            "bufferView" : 15,
            "componentType" : 5126,
            "count" : 98,
            "max" : [
                1.4575239419937134,
                0.49914389848709106,
                0.023916732519865036
            ],
            "min" : [
                -1.4575239419937134,
                -0.48128604888916016,
                -0.20920529961585999
            ],
            "type" : "VEC3"
        },
        {
            "bufferView" : 16,
            "componentType" : 5126,
            "count" : 98,
            "type" : "VEC3"
        },
        {
            "bufferView" : 17,
            "componentType" : 5126,
            "count" : 98,
            "type" : "VEC2"
        },
        {
            "bufferView" : 18,
            "componentType" : 5123,
            "count" : 432,
            "type" : "SCALAR"
        }
    ],
    "bufferViews" : [
        {
            "buffer" : 0,
            "byteLength" : 24708,
            "byteOffset" : 0
        },
        {
            "buffer" : 0,
            "byteLength" : 24708,
            "byteOffset" : 24708
        },
        {
            "buffer" : 0,
            "byteLength" : 16472,
            "byteOffset" : 49416
        },
        {
            "buffer" : 0,
            "byteLength" : 13920,
            "byteOffset" : 65888
        },
        {
            "buffer" : 0,
            "byteLength" : 2031014,
            "byteOffset" : 79808
        },
        {
            "buffer" : 0,
            "byteLength" : 612731,
            "byteOffset" : 2110824
        },
        {
            "buffer" : 0,
            "byteLength" : 278480,
            "byteOffset" : 2723556
        },
        {
            "buffer" : 0,
            "byteLength" : 24540,
            "byteOffset" : 3002036
        },
        {
            "buffer" : 0,
            "byteLength" : 24540,
            "byteOffset" : 3026576
        },
        {
            "buffer" : 0,
            "byteLength" : 16360,
            "byteOffset" : 3051116
        },
        {
            "buffer" : 0,
            "byteLength" : 18240,
            "byteOffset" : 3067476
        },
        {
            "buffer" : 0,
            "byteLength" : 3264,
            "byteOffset" : 3085716
        },
        {
            "buffer" : 0,
            "byteLength" : 3264,
            "byteOffset" : 3088980
        },
        {
            "buffer" : 0,
            "byteLength" : 2176,
            "byteOffset" : 3092244
        },
        {
            "buffer" : 0,
            "byteLength" : 1488,
            "byteOffset" : 3094420
        },
        {
            "buffer" : 0,
            "byteLength" : 1176,
            "byteOffset" : 3095908
        },
        {
            "buffer" : 0,
            "byteLength" : 1176,
            "byteOffset" : 3097084
        },
        {
            "buffer" : 0,
            "byteLength" : 784,
            "byteOffset" : 3098260
        },
        {
            "buffer" : 0,
            "byteLength" : 864,
            "byteOffset" : 3099044
        }
    ],
    "buffers" : [
        {
            "byteLength" : 3099908,
            "uri" : "data:application/octet-stream;base64,"
        }
    ]
}
