{
    "asset" : {
        "generator" : "Khronos glTF Blender I/O v1.3.48",
        "version" : "2.0"
    },
    "scene" : 0,
    "scenes" : [
        {
            "name" : "Scene",
            "nodes" : [
                10,
                11,
                12
            ]
        }
    ],
    "nodes" : [
        {
            "name" : "Node_13"
        },
        {
            "children" : [
                0
            ],
            "name" : "Camera",
            "rotation" : [
                -0.21255725622177124,
                0.9047970175743103,
                -0.08438937366008759,
                0.3592217266559601
            ],
            "scale" : [
                100,
                100.00000762939453,
                99.99999237060547
            ],
            "translation" : [
                748.1131591796875,
                534.3665161132812,
                650.7639770507812
            ]
        },
        {
            "mesh" : 0,
            "name" : "Circle_Material_0",
            "scale" : [
                0.6545454859733582,
                0.6545454859733582,
                0.6545454859733582
            ],
            "translation" : [
                1.1001936197280884,
                14.040042877197266,
                4.31441593170166
            ]
        },
        {
            "children" : [
                2
            ],
            "name" : "Circle",
            "rotation" : [
                -0.7071068286895752,
                0,
                0,
                0.7071067094802856
            ],
            "scale" : [
                176.26287841796875,
                100,
                100
            ],
            "translation" : [
                4.851762771606445,
                -429.0077819824219,
                899.0381469726562
            ]
        },
        {
            "name" : "Node_11"
        },
        {
            "children" : [
                4
            ],
            "name" : "Node_10",
            "rotation" : [
                0.7071068286895752,
                0,
                0,
                0.7071068286895752
            ]
        },
        {
            "children" : [
                5
            ],
            "name" : "Lamp",
            "rotation" : [
                0.16907569766044617,
                0.7558803558349609,
                -0.27217134833335876,
                0.570947527885437
            ],
            "scale" : [
                100.00000762939453,
                100,
                100
            ],
            "translation" : [
                407.6245422363281,
                590.38623046875,
                -100.54539489746094
            ]
        },
        {
            "children" : [
                1,
                3,
                6
            ],
            "name" : "RootNode"
        },
        {
            "children" : [
                7
            ],
            "name" : "Glue bottle.fbx",
            "rotation" : [
                0.7071068286895752,
                0,
                0,
                0.7071068286895752
            ]
        },
        {
            "children" : [
                8
            ],
            "name" : "RootNode (model correction matrix)",
            "scale" : [
                0.001859023468568921,
                0.001859023468568921,
                0.001859023468568921
            ]
        },
        {
            "children" : [
                9
            ],
            "name" : "RootNode (gltf orientation matrix)",
            "rotation" : [
                -0.7071068286895752,
                0,
                0,
                0.7071068286895752
            ]
        },
        {
            "mesh" : 1,
            "name" : "guantes",
            "scale" : [
                1.1124160289764404,
                1,
                1
            ]
        },
        {
            "mesh" : 2,
            "name" : "condon",
            "rotation" : [
                0,
                0.33531653881073,
                0,
                0.9421055316925049
            ],
            "scale" : [
                0.43390166759490967,
                0.4339016079902649,
                0.43390166759490967
            ],
            "translation" : [
                0.9331387877464294,
                0,
                -0.5566090941429138
            ]
        }
    ],
    "materials" : [
        {
            "doubleSided" : true,
            "emissiveFactor" : [
                0,
                0,
                0
            ],
            "name" : "Material.003",
            "pbrMetallicRoughness" : {
                "baseColorFactor" : [
                    0.800000011920929,
                    0.800000011920929,
                    0.800000011920929,
                    1
                ],
                "metallicFactor" : 0,
                "roughnessFactor" : 0.823941707611084
            }
        },
        {
            "doubleSided" : true,
            "emissiveFactor" : [
                0,
                0,
                0
            ],
            "name" : "logo",
            "pbrMetallicRoughness" : {
                "baseColorTexture" : {
                    "index" : 0,
                    "texCoord" : 0
                },
                "metallicFactor" : 0,
                "roughnessFactor" : 0.823941707611084
            }
        },
        {
            "doubleSided" : true,
            "emissiveFactor" : [
                0,
                0,
                0
            ],
            "name" : "back_label",
            "pbrMetallicRoughness" : {
                "baseColorTexture" : {
                    "index" : 1,
                    "texCoord" : 0
                },
                "metallicFactor" : 0,
                "roughnessFactor" : 0.823941707611084
            }
        },
        {
            "doubleSided" : true,
            "emissiveFactor" : [
                0,
                0,
                0
            ],
            "name" : "glue_tip",
            "pbrMetallicRoughness" : {
                "baseColorFactor" : [
                    0.800000011920929,
                    0.08860579878091812,
                    0,
                    1
                ],
                "metallicFactor" : 0,
                "roughnessFactor" : 0.823941707611084
            }
        },
        {
            "alphaMode" : "BLEND",
            "doubleSided" : true,
            "emissiveFactor" : [
                0,
                0,
                0
            ],
            "name" : "guantes",
            "pbrMetallicRoughness" : {
                "baseColorTexture" : {
                    "index" : 2,
                    "texCoord" : 0
                },
                "metallicFactor" : 0,
                "roughnessFactor" : 0.5
            }
        },
        {
            "alphaMode" : "BLEND",
            "doubleSided" : true,
            "emissiveFactor" : [
                0,
                0,
                0
            ],
            "name" : "condon",
            "pbrMetallicRoughness" : {
                "baseColorTexture" : {
                    "index" : 3,
                    "texCoord" : 0
                },
                "metallicFactor" : 0,
                "roughnessFactor" : 0.5
            }
        }
    ],
    "meshes" : [
        {
            "name" : "Circle_Material_0",
            "primitives" : [
                {
                    "attributes" : {
                        "POSITION" : 0,
                        "NORMAL" : 1,
                        "TEXCOORD_0" : 2
                    },
                    "indices" : 3,
                    "material" : 0
                },
                {
                    "attributes" : {
                        "POSITION" : 4,
                        "NORMAL" : 5,
                        "TEXCOORD_0" : 6
                    },
                    "indices" : 7,
                    "material" : 1
                },
                {
                    "attributes" : {
                        "POSITION" : 8,
                        "NORMAL" : 9,
                        "TEXCOORD_0" : 10
                    },
                    "indices" : 11,
                    "material" : 2
                },
                {
                    "attributes" : {
                        "POSITION" : 12,
                        "NORMAL" : 13,
                        "TEXCOORD_0" : 14
                    },
                    "indices" : 15,
                    "material" : 3
                }
            ]
        },
        {
            "name" : "guantes",
            "primitives" : [
                {
                    "attributes" : {
                        "POSITION" : 16,
                        "NORMAL" : 17,
                        "TEXCOORD_0" : 18
                    },
                    "indices" : 19,
                    "material" : 4
                }
            ]
        },
        {
            "name" : "condon",
            "primitives" : [
                {
                    "attributes" : {
                        "POSITION" : 20,
                        "NORMAL" : 21,
                        "TEXCOORD_0" : 22
                    },
                    "indices" : 19,
                    "material" : 5
                }
            ]
        }
    ],
    "textures" : [
        {
            "sampler" : 0,
            "source" : 0
        },
        {
            "source" : 1
        },
        {
            "source" : 2
        },
        {
            "source" : 3
        }
    ],
    "images" : [
        {
            "bufferView" : 8,
            "mimeType" : "image/jpeg",
            "name" : "logo_baseColor"
        },
        {
            "bufferView" : 13,
            "mimeType" : "image/jpeg",
            "name" : "back_label_baseColor"
        },
        {
            "bufferView" : 22,
            "mimeType" : "image/png",
            "name" : "guantes"
        },
        {
            "bufferView" : 26,
            "mimeType" : "image/png",
            "name" : "condon"
        }
    ],
    "accessors" : [
        {
            "bufferView" : 0,
            "componentType" : 5126,
            "count" : 389,
            "max" : [
                1.320701003074646,
                1.25702965259552,
                8.752837181091309
            ],
            "min" : [
                -1.4403653144836426,
                -1.3805330991744995,
                -0.030131816864013672
            ],
            "type" : "VEC3"
        },
        {
            "bufferView" : 1,
            "componentType" : 5126,
            "count" : 389,
            "type" : "VEC3"
        },
        {
            "bufferView" : 2,
            "componentType" : 5126,
            "count" : 389,
            "type" : "VEC2"
        },
        {
            "bufferView" : 3,
            "componentType" : 5123,
            "count" : 1230,
            "type" : "SCALAR"
        },
        {
            "bufferView" : 4,
            "componentType" : 5126,
            "count" : 26,
            "max" : [
                0.9163528084754944,
                -0.2693276107311249,
                7.472729206085205
            ],
            "min" : [
                -1.4138386249542236,
                -1.380532145500183,
                0.6478378176689148
            ],
            "type" : "VEC3"
        },
        {
            "bufferView" : 5,
            "componentType" : 5126,
            "count" : 26,
            "type" : "VEC3"
        },
        {
            "bufferView" : 6,
            "componentType" : 5126,
            "count" : 26,
            "type" : "VEC2"
        },
        {
            "bufferView" : 7,
            "componentType" : 5123,
            "count" : 54,
            "type" : "SCALAR"
        },
        {
            "bufferView" : 9,
            "componentType" : 5126,
            "count" : 18,
            "max" : [
                0.9586830735206604,
                1.2570306062698364,
                7.461451530456543
            ],
            "min" : [
                -1.0795711278915405,
                0.8906034231185913,
                0.4012615382671356
            ],
            "type" : "VEC3"
        },
        {
            "bufferView" : 10,
            "componentType" : 5126,
            "count" : 18,
            "type" : "VEC3"
        },
        {
            "bufferView" : 11,
            "componentType" : 5126,
            "count" : 18,
            "type" : "VEC2"
        },
        {
            "bufferView" : 12,
            "componentType" : 5123,
            "count" : 48,
            "type" : "SCALAR"
        },
        {
            "bufferView" : 14,
            "componentType" : 5126,
            "count" : 1829,
            "max" : [
                1.0587446689605713,
                1.0867478847503662,
                11.193330764770508
            ],
            "min" : [
                -1.178409218788147,
                -1.0867462158203125,
                0.8712376952171326
            ],
            "type" : "VEC3"
        },
        {
            "bufferView" : 15,
            "componentType" : 5126,
            "count" : 1829,
            "type" : "VEC3"
        },
        {
            "bufferView" : 16,
            "componentType" : 5126,
            "count" : 1829,
            "type" : "VEC2"
        },
        {
            "bufferView" : 17,
            "componentType" : 5123,
            "count" : 2400,
            "type" : "SCALAR"
        },
        {
            "bufferView" : 18,
            "componentType" : 5126,
            "count" : 4,
            "max" : [
                0.6345580816268921,
                0,
                0.5
            ],
            "min" : [
                -0.6345580816268921,
                0,
                -0.5
            ],
            "type" : "VEC3"
        },
        {
            "bufferView" : 19,
            "componentType" : 5126,
            "count" : 4,
            "type" : "VEC3"
        },
        {
            "bufferView" : 20,
            "componentType" : 5126,
            "count" : 4,
            "type" : "VEC2"
        },
        {
            "bufferView" : 21,
            "componentType" : 5123,
            "count" : 6,
            "type" : "SCALAR"
        },
        {
            "bufferView" : 23,
            "componentType" : 5126,
            "count" : 4,
            "max" : [
                0.5,
                0,
                0.5
            ],
            "min" : [
                -0.5,
                0,
                -0.5
            ],
            "type" : "VEC3"
        },
        {
            "bufferView" : 24,
            "componentType" : 5126,
            "count" : 4,
            "type" : "VEC3"
        },
        {
            "bufferView" : 25,
            "componentType" : 5126,
            "count" : 4,
            "type" : "VEC2"
        }
    ],
    "bufferViews" : [
        {
            "buffer" : 0,
            "byteLength" : 4668,
            "byteOffset" : 0
        },
        {
            "buffer" : 0,
            "byteLength" : 4668,
            "byteOffset" : 4668
        },
        {
            "buffer" : 0,
            "byteLength" : 3112,
            "byteOffset" : 9336
        },
        {
            "buffer" : 0,
            "byteLength" : 2460,
            "byteOffset" : 12448
        },
        {
            "buffer" : 0,
            "byteLength" : 312,
            "byteOffset" : 14908
        },
        {
            "buffer" : 0,
            "byteLength" : 312,
            "byteOffset" : 15220
        },
        {
            "buffer" : 0,
            "byteLength" : 208,
            "byteOffset" : 15532
        },
        {
            "buffer" : 0,
            "byteLength" : 108,
            "byteOffset" : 15740
        },
        {
            "buffer" : 0,
            "byteLength" : 61511,
            "byteOffset" : 15848
        },
        {
            "buffer" : 0,
            "byteLength" : 216,
            "byteOffset" : 77360
        },
        {
            "buffer" : 0,
            "byteLength" : 216,
            "byteOffset" : 77576
        },
        {
            "buffer" : 0,
            "byteLength" : 144,
            "byteOffset" : 77792
        },
        {
            "buffer" : 0,
            "byteLength" : 96,
            "byteOffset" : 77936
        },
        {
            "buffer" : 0,
            "byteLength" : 30078,
            "byteOffset" : 78032
        },
        {
            "buffer" : 0,
            "byteLength" : 21948,
            "byteOffset" : 108112
        },
        {
            "buffer" : 0,
            "byteLength" : 21948,
            "byteOffset" : 130060
        },
        {
            "buffer" : 0,
            "byteLength" : 14632,
            "byteOffset" : 152008
        },
        {
            "buffer" : 0,
            "byteLength" : 4800,
            "byteOffset" : 166640
        },
        {
            "buffer" : 0,
            "byteLength" : 48,
            "byteOffset" : 171440
        },
        {
            "buffer" : 0,
            "byteLength" : 48,
            "byteOffset" : 171488
        },
        {
            "buffer" : 0,
            "byteLength" : 32,
            "byteOffset" : 171536
        },
        {
            "buffer" : 0,
            "byteLength" : 12,
            "byteOffset" : 171568
        },
        {
            "buffer" : 0,
            "byteLength" : 1533165,
            "byteOffset" : 171580
        },
        {
            "buffer" : 0,
            "byteLength" : 48,
            "byteOffset" : 1704748
        },
        {
            "buffer" : 0,
            "byteLength" : 48,
            "byteOffset" : 1704796
        },
        {
            "buffer" : 0,
            "byteLength" : 32,
            "byteOffset" : 1704844
        },
        {
            "buffer" : 0,
            "byteLength" : 444143,
            "byteOffset" : 1704876
        }
    ],
    "samplers" : [
        {
            "magFilter" : 9729,
            "minFilter" : 9986,
            "wrapS" : 33071,
            "wrapT" : 33071
        }
    ],
    "buffers" : [
        {
            "byteLength" : 2149020,
            "uri" : "data:application/octet-stream;base64,"
        }
    ]
}
