{
    "asset" : {
        "generator" : "Khronos glTF Blender I/O v1.3.48",
        "version" : "2.0"
    },
    "scene" : 0,
    "scenes" : [
        {
            "name" : "Scene",
            "nodes" : [
                8
            ]
        }
    ],
    "nodes" : [
        {
            "mesh" : 0,
            "name" : "polySurface2_drain_surface_0"
        },
        {
            "mesh" : 1,
            "name" : "polySurface2_pipe_surface_0"
        },
        {
            "mesh" : 2,
            "name" : "polySurface2_sink_inner_surface_0"
        },
        {
            "mesh" : 3,
            "name" : "polySurface2_sink_metal_surface_0"
        },
        {
            "children" : [
                0,
                1,
                2,
                3
            ],
            "name" : "polySurface2"
        },
        {
            "children" : [
                4
            ],
            "name" : "RootNode"
        },
        {
            "children" : [
                5
            ],
            "name" : "sink_with_pipes.fbx",
            "rotation" : [
                0.7071068286895752,
                0,
                0,
                0.7071068286895752
            ]
        },
        {
            "children" : [
                6
            ],
            "name" : "RootNode (model correction matrix)"
        },
        {
            "children" : [
                7
            ],
            "name" : "RootNode (gltf orientation matrix)",
            "rotation" : [
                -0.5,
                0.5000000596046448,
                0.5000000596046448,
                0.5
            ],
            "translation" : [
                0,
                23.233972549438477,
                0
            ]
        }
    ],
    "materials" : [
        {
            "doubleSided" : true,
            "emissiveFactor" : [
                0,
                0,
                0
            ],
            "name" : "drain_surface",
            "pbrMetallicRoughness" : {
                "baseColorFactor" : [
                    0.659241259098053,
                    0.659241259098053,
                    0.659241259098053,
                    1
                ],
                "metallicFactor" : 0.6419588327407837,
                "roughnessFactor" : 0.1690167635679245
            }
        },
        {
            "doubleSided" : true,
            "emissiveFactor" : [
                0.6141933798789978,
                0.4255051016807556,
                0.018109964206814766
            ],
            "name" : "sink_pipe_second_surface",
            "pbrMetallicRoughness" : {
                "baseColorFactor" : [
                    0.8290322422981262,
                    0.8240225911140442,
                    0.9140909910202026,
                    1
                ],
                "metallicFactor" : 0,
                "roughnessFactor" : 0.6385289430618286
            }
        },
        {
            "doubleSided" : true,
            "emissiveFactor" : [
                0.4610355496406555,
                0.19527700543403625,
                0.5015779137611389
            ],
            "name" : "sink_inner_surface",
            "pbrMetallicRoughness" : {
                "baseColorFactor" : [
                    0.714305579662323,
                    0.714305579662323,
                    0.714305579662323,
                    1
                ],
                "metallicFactor" : 0.10537347197532654,
                "roughnessFactor" : 0.2726753056049347
            }
        },
        {
            "doubleSided" : true,
            "emissiveFactor" : [
                0,
                0,
                0
            ],
            "name" : "sink_metal_surface",
            "pbrMetallicRoughness" : {
                "baseColorFactor" : [
                    0.7494345307350159,
                    0.7494345307350159,
                    0.7494345307350159,
                    1
                ],
                "metallicFactor" : 1,
                "roughnessFactor" : 0.07755335420370102
            }
        }
    ],
    "meshes" : [
        {
            "name" : "polySurface2_drain_surface_0",
            "primitives" : [
                {
                    "attributes" : {
                        "POSITION" : 0,
                        "NORMAL" : 1,
                        "TEXCOORD_0" : 2
                    },
                    "indices" : 3,
                    "material" : 0
                }
            ]
        },
        {
            "name" : "polySurface2_pipe_surface_0",
            "primitives" : [
                {
                    "attributes" : {
                        "POSITION" : 4,
                        "NORMAL" : 5,
                        "TEXCOORD_0" : 6
                    },
                    "indices" : 7,
                    "material" : 1
                }
            ]
        },
        {
            "name" : "polySurface2_sink_inner_surface_0",
            "primitives" : [
                {
                    "attributes" : {
                        "POSITION" : 8,
                        "NORMAL" : 9,
                        "TEXCOORD_0" : 10
                    },
                    "indices" : 11,
                    "material" : 2
                }
            ]
        },
        {
            "name" : "polySurface2_sink_metal_surface_0",
            "primitives" : [
                {
                    "attributes" : {
                        "POSITION" : 12,
                        "NORMAL" : 13,
                        "TEXCOORD_0" : 14
                    },
                    "indices" : 15,
                    "material" : 3
                }
            ]
        }
    ],
    "accessors" : [
        {
            "bufferView" : 0,
            "componentType" : 5126,
            "count" : 121,
            "max" : [
                1.7804601192474365,
                1.1487607955932617,
                2.000000238418579
            ],
            "min" : [
                -2.2195403575897217,
                0.14876073598861694,
                -2.0000009536743164
            ],
            "type" : "VEC3"
        },
        {
            "bufferView" : 1,
            "componentType" : 5126,
            "count" : 121,
            "type" : "VEC3"
        },
        {
            "bufferView" : 2,
            "componentType" : 5126,
            "count" : 121,
            "type" : "VEC2"
        },
        {
            "bufferView" : 3,
            "componentType" : 5123,
            "count" : 240,
            "type" : "SCALAR"
        },
        {
            "bufferView" : 4,
            "componentType" : 5126,
            "count" : 1945,
            "max" : [
                3.946807384490967,
                0.1884291172027588,
                4.975189685821533
            ],
            "min" : [
                -36.66648864746094,
                -22.599607467651367,
                -3.947500228881836
            ],
            "type" : "VEC3"
        },
        {
            "bufferView" : 5,
            "componentType" : 5126,
            "count" : 1945,
            "type" : "VEC3"
        },
        {
            "bufferView" : 6,
            "componentType" : 5126,
            "count" : 1945,
            "type" : "VEC2"
        },
        {
            "bufferView" : 7,
            "componentType" : 5123,
            "count" : 7680,
            "type" : "SCALAR"
        },
        {
            "bufferView" : 8,
            "componentType" : 5126,
            "count" : 2919,
            "max" : [
                14.34321403503418,
                11.547816276550293,
                25.438140869140625
            ],
            "min" : [
                -35.192047119140625,
                -0.5,
                -26.1243896484375
            ],
            "type" : "VEC3"
        },
        {
            "bufferView" : 9,
            "componentType" : 5126,
            "count" : 2919,
            "type" : "VEC3"
        },
        {
            "bufferView" : 10,
            "componentType" : 5126,
            "count" : 2919,
            "type" : "VEC2"
        },
        {
            "bufferView" : 11,
            "componentType" : 5123,
            "count" : 8580,
            "type" : "SCALAR"
        },
        {
            "bufferView" : 12,
            "componentType" : 5126,
            "count" : 1396,
            "max" : [
                -3.079193592071533,
                28.84026527404785,
                12.180852890014648
            ],
            "min" : [
                -16.627492904663086,
                11.185741424560547,
                -12.867100715637207
            ],
            "type" : "VEC3"
        },
        {
            "bufferView" : 13,
            "componentType" : 5126,
            "count" : 1396,
            "type" : "VEC3"
        },
        {
            "bufferView" : 14,
            "componentType" : 5126,
            "count" : 1396,
            "type" : "VEC2"
        },
        {
            "bufferView" : 15,
            "componentType" : 5123,
            "count" : 5964,
            "type" : "SCALAR"
        }
    ],
    "bufferViews" : [
        {
            "buffer" : 0,
            "byteLength" : 1452,
            "byteOffset" : 0
        },
        {
            "buffer" : 0,
            "byteLength" : 1452,
            "byteOffset" : 1452
        },
        {
            "buffer" : 0,
            "byteLength" : 968,
            "byteOffset" : 2904
        },
        {
            "buffer" : 0,
            "byteLength" : 480,
            "byteOffset" : 3872
        },
        {
            "buffer" : 0,
            "byteLength" : 23340,
            "byteOffset" : 4352
        },
        {
            "buffer" : 0,
            "byteLength" : 23340,
            "byteOffset" : 27692
        },
        {
            "buffer" : 0,
            "byteLength" : 15560,
            "byteOffset" : 51032
        },
        {
            "buffer" : 0,
            "byteLength" : 15360,
            "byteOffset" : 66592
        },
        {
            "buffer" : 0,
            "byteLength" : 35028,
            "byteOffset" : 81952
        },
        {
            "buffer" : 0,
            "byteLength" : 35028,
            "byteOffset" : 116980
        },
        {
            "buffer" : 0,
            "byteLength" : 23352,
            "byteOffset" : 152008
        },
        {
            "buffer" : 0,
            "byteLength" : 17160,
            "byteOffset" : 175360
        },
        {
            "buffer" : 0,
            "byteLength" : 16752,
            "byteOffset" : 192520
        },
        {
            "buffer" : 0,
            "byteLength" : 16752,
            "byteOffset" : 209272
        },
        {
            "buffer" : 0,
            "byteLength" : 11168,
            "byteOffset" : 226024
        },
        {
            "buffer" : 0,
            "byteLength" : 11928,
            "byteOffset" : 237192
        }
    ],
    "buffers" : [
        {
            "byteLength" : 249120,
            "uri" : "data:application/octet-stream;base64,"
        }
    ]
}
