{
    "asset" : {
        "generator" : "Khronos glTF Blender I/O v1.3.48",
        "version" : "2.0"
    },
    "scene" : 0,
    "scenes" : [
        {
            "name" : "Scene",
            "nodes" : [
                5
            ]
        }
    ],
    "nodes" : [
        {
            "mesh" : 0,
            "name" : "Waste_Bin_default_0",
            "scale" : [
                1.1454178094863892,
                1.1454178094863892,
                1.1454178094863892
            ],
            "translation" : [
                -17.027111053466797,
                20.00684928894043,
                2.688097083591856e-06
            ]
        },
        {
            "children" : [
                0
            ],
            "name" : "Waste_Bin",
            "rotation" : [
                -0.7071068286895752,
                0,
                0,
                0.7071068286895752
            ]
        },
        {
            "children" : [
                1
            ],
            "name" : "RootNode.001"
        },
        {
            "children" : [
                2
            ],
            "name" : "Waste_Bin.FBX",
            "rotation" : [
                0.7071068286895752,
                0,
                0,
                0.7071068286895752
            ]
        },
        {
            "children" : [
                3
            ],
            "name" : "RootNode (model correction matrix).002"
        },
        {
            "children" : [
                4
            ],
            "name" : "RootNode (gltf orientation matrix).002",
            "rotation" : [
                -0.7071068286895752,
                0,
                0,
                0.7071068286895752
            ]
        }
    ],
    "materials" : [
        {
            "alphaCutoff" : 0.2710227370262146,
            "alphaMode" : "MASK",
            "name" : "default",
            "pbrMetallicRoughness" : {}
        }
    ],
    "meshes" : [
        {
            "name" : "Waste_Bin_default_0",
            "primitives" : [
                {
                    "attributes" : {
                        "POSITION" : 0,
                        "NORMAL" : 1,
                        "TEXCOORD_0" : 2,
                        "COLOR_0" : 3
                    },
                    "indices" : 4,
                    "material" : 0
                }
            ]
        }
    ],
    "accessors" : [
        {
            "bufferView" : 0,
            "componentType" : 5126,
            "count" : 236,
            "max" : [
                16.931499481201172,
                16.425800323486328,
                34.508201599121094
            ],
            "min" : [
                -17.271099090576172,
                -16.425800323486328,
                -1.9073486328125e-06
            ],
            "type" : "VEC3"
        },
        {
            "bufferView" : 1,
            "componentType" : 5126,
            "count" : 236,
            "type" : "VEC3"
        },
        {
            "bufferView" : 2,
            "componentType" : 5126,
            "count" : 236,
            "type" : "VEC2"
        },
        {
            "bufferView" : 3,
            "componentType" : 5126,
            "count" : 236,
            "type" : "VEC4"
        },
        {
            "bufferView" : 4,
            "componentType" : 5123,
            "count" : 720,
            "type" : "SCALAR"
        }
    ],
    "bufferViews" : [
        {
            "buffer" : 0,
            "byteLength" : 2832,
            "byteOffset" : 0
        },
        {
            "buffer" : 0,
            "byteLength" : 2832,
            "byteOffset" : 2832
        },
        {
            "buffer" : 0,
            "byteLength" : 1888,
            "byteOffset" : 5664
        },
        {
            "buffer" : 0,
            "byteLength" : 3776,
            "byteOffset" : 7552
        },
        {
            "buffer" : 0,
            "byteLength" : 1440,
            "byteOffset" : 11328
        }
    ],
    "buffers" : [
        {
            "byteLength" : 12768,
            "uri" : "data:application/octet-stream;base64,"
        }
    ]
}
