{
    "asset" : {
        "generator" : "Khronos glTF Blender I/O v1.3.48",
        "version" : "2.0"
    },
    "scene" : 0,
    "scenes" : [
        {
            "name" : "Scene",
            "nodes" : [
                4
            ]
        }
    ],
    "nodes" : [
        {
            "mesh" : 0,
            "name" : "Ficus_Ficus_0"
        },
        {
            "children" : [
                0
            ],
            "name" : "Ficus",
            "rotation" : [
                -0.7071068286895752,
                0,
                0,
                0.7071068286895752
            ]
        },
        {
            "children" : [
                1
            ],
            "name" : "RootNode"
        },
        {
            "children" : [
                2
            ],
            "name" : "1f7b3a8857b84bff94044e2ae59357b4.fbx",
            "rotation" : [
                0.7071068286895752,
                0,
                0,
                0.7071068286895752
            ]
        },
        {
            "children" : [
                3
            ],
            "name" : "Sketchfab_model",
            "rotation" : [
                -0.7071068286895752,
                0,
                0,
                0.7071068286895752
            ],
            "scale" : [
                0.047965072095394135,
                0.047965072095394135,
                0.047965072095394135
            ]
        }
    ],
    "materials" : [
        {
            "alphaMode" : "BLEND",
            "doubleSided" : true,
            "emissiveFactor" : [
                1,
                1,
                1
            ],
            "emissiveTexture" : {
                "index" : 0,
                "texCoord" : 0
            },
            "name" : "Ficus",
            "normalTexture" : {
                "index" : 1,
                "texCoord" : 0
            },
            "occlusionTexture" : {
                "index" : 2,
                "texCoord" : 0
            },
            "pbrMetallicRoughness" : {
                "baseColorTexture" : {
                    "index" : 3,
                    "texCoord" : 0
                },
                "metallicRoughnessTexture" : {
                    "index" : 2,
                    "texCoord" : 0
                }
            }
        }
    ],
    "meshes" : [
        {
            "name" : "Ficus_Ficus_0",
            "primitives" : [
                {
                    "attributes" : {
                        "POSITION" : 0,
                        "NORMAL" : 1,
                        "TEXCOORD_0" : 2
                    },
                    "indices" : 3,
                    "material" : 0
                }
            ]
        }
    ],
    "textures" : [
        {
            "source" : 0
        },
        {
            "source" : 1
        },
        {
            "source" : 2
        },
        {
            "source" : 0
        }
    ],
    "images" : [
        {
            "bufferView" : 4,
            "mimeType" : "image/png",
            "name" : "Ficus_baseColor"
        },
        {
            "bufferView" : 5,
            "mimeType" : "image/jpeg",
            "name" : "Ficus_normal"
        },
        {
            "bufferView" : 6,
            "mimeType" : "image/png",
            "name" : "Ficus_metallicRoughness"
        }
    ],
    "accessors" : [
        {
            "bufferView" : 0,
            "componentType" : 5126,
            "count" : 872,
            "max" : [
                1113.11767578125,
                1043.471923828125,
                2247.642822265625
            ],
            "min" : [
                -1025.8956298828125,
                -886.7479248046875,
                0
            ],
            "type" : "VEC3"
        },
        {
            "bufferView" : 1,
            "componentType" : 5126,
            "count" : 872,
            "type" : "VEC3"
        },
        {
            "bufferView" : 2,
            "componentType" : 5126,
            "count" : 872,
            "type" : "VEC2"
        },
        {
            "bufferView" : 3,
            "componentType" : 5123,
            "count" : 3648,
            "type" : "SCALAR"
        }
    ],
    "bufferViews" : [
        {
            "buffer" : 0,
            "byteLength" : 10464,
            "byteOffset" : 0
        },
        {
            "buffer" : 0,
            "byteLength" : 10464,
            "byteOffset" : 10464
        },
        {
            "buffer" : 0,
            "byteLength" : 6976,
            "byteOffset" : 20928
        },
        {
            "buffer" : 0,
            "byteLength" : 7296,
            "byteOffset" : 27904
        },
        {
            "buffer" : 0,
            "byteLength" : 1469635,
            "byteOffset" : 35200
        },
        {
            "buffer" : 0,
            "byteLength" : 687119,
            "byteOffset" : 1504836
        },
        {
            "buffer" : 0,
            "byteLength" : 911747,
            "byteOffset" : 2191956
        }
    ],
    "buffers" : [
        {
            "byteLength" : 3103704,
            "uri" : "data:application/octet-stream;base64,"
        }
    ]
}
