{
    "asset" : {
        "generator" : "Khronos glTF Blender I/O v1.3.48",
        "version" : "2.0"
    },
    "scene" : 0,
    "scenes" : [
        {
            "name" : "Scene",
            "nodes" : [
                0
            ]
        }
    ],
    "nodes" : [
        {
            "mesh" : 0,
            "name" : "Plane.002",
            "rotation" : [
                0,
                0.2147970348596573,
                0,
                0.976658821105957
            ],
            "scale" : [
                1,
                1,
                1.1965688467025757
            ],
            "translation" : [
                0.5182647705078125,
                7.215958118438721,
                0.307891845703125
            ]
        }
    ],
    "materials" : [
        {
            "doubleSided" : true,
            "emissiveFactor" : [
                0,
                0,
                0
            ],
            "name" : "Material.009",
            "pbrMetallicRoughness" : {
                "baseColorTexture" : {
                    "index" : 0,
                    "texCoord" : 0
                },
                "metallicFactor" : 0,
                "roughnessFactor" : 0.5
            }
        }
    ],
    "meshes" : [
        {
            "name" : "Plane.002",
            "primitives" : [
                {
                    "attributes" : {
                        "POSITION" : 0,
                        "NORMAL" : 1,
                        "TEXCOORD_0" : 2
                    },
                    "indices" : 3,
                    "material" : 0
                }
            ]
        }
    ],
    "textures" : [
        {
            "source" : 0
        }
    ],
    "images" : [
        {
            "bufferView" : 4,
            "mimeType" : "image/jpeg",
            "name" : "velvett"
        }
    ],
    "accessors" : [
        {
            "bufferView" : 0,
            "componentType" : 5126,
            "count" : 1060,
            "max" : [
                20.250930786132812,
                10.428796768188477,
                5.987636566162109
            ],
            "min" : [
                -24.151092529296875,
                -5.623377323150635,
                -5.987636566162109
            ],
            "type" : "VEC3"
        },
        {
            "bufferView" : 1,
            "componentType" : 5126,
            "count" : 1060,
            "type" : "VEC3"
        },
        {
            "bufferView" : 2,
            "componentType" : 5126,
            "count" : 1060,
            "type" : "VEC2"
        },
        {
            "bufferView" : 3,
            "componentType" : 5123,
            "count" : 3852,
            "type" : "SCALAR"
        }
    ],
    "bufferViews" : [
        {
            "buffer" : 0,
            "byteLength" : 12720,
            "byteOffset" : 0
        },
        {
            "buffer" : 0,
            "byteLength" : 12720,
            "byteOffset" : 12720
        },
        {
            "buffer" : 0,
            "byteLength" : 8480,
            "byteOffset" : 25440
        },
        {
            "buffer" : 0,
            "byteLength" : 7704,
            "byteOffset" : 33920
        },
        {
            "buffer" : 0,
            "byteLength" : 123823,
            "byteOffset" : 41624
        }
    ],
    "buffers" : [
        {
            "byteLength" : 165448,
            "uri" : "data:application/octet-stream;base64,"
        }
    ]
}
